<svg xmlns="http://www.w3.org/2000/svg" xmlns:xlink="http://www.w3.org/1999/xlink" viewBox="0 0 330.18 145.06"><defs><style>.cls-1{fill:url(#Áåçûìÿííûé_ãðàäèåíò_4);}.cls-2{fill:url(#Áåçûìÿííûé_ãðàäèåíò_4-2);}.cls-3{fill:url(#Áåçûìÿííûé_ãðàäèåíò_3);}.cls-4{fill:url(#Áåçûìÿííûé_ãðàäèåíò_2);}</style><linearGradient id="Áåçûìÿííûé_ãðàäèåíò_4" x1="52.15" y1="108.33" x2="52.15" y2="79.92" gradientUnits="userSpaceOnUse"><stop offset="0.01" stop-color="#3d70aa"/><stop offset="1" stop-color="#64b4c2"/></linearGradient><linearGradient id="Áåçûìÿííûé_ãðàäèåíò_4-2" x1="62.13" y1="72.53" x2="62.13" y2="0" xlink:href="#Áåçûìÿííûé_ãðàäèåíò_4"/><linearGradient id="Áåçûìÿííûé_ãðàäèåíò_3" x1="94.31" y1="189.77" x2="214.41" y2="-56.47" gradientUnits="userSpaceOnUse"><stop offset="0.01" stop-color="#2973ad"/><stop offset="1" stop-color="#0861a1"/></linearGradient><linearGradient id="Áåçûìÿííûé_ãðàäèåíò_2" x1="121.89" y1="190.26" x2="212.3" y2="-45.25" gradientUnits="userSpaceOnUse"><stop offset="0.01" stop-color="#2466a4"/><stop offset="1" stop-color="#173d7d"/></linearGradient></defs><g id="Layer_2" data-name="Layer 2"><g id="Trees"><path class="cls-1" d="M41.15,108.33a33.35,33.35,0,0,1,4-15.83s-6,1.5-7-4.83,20-7.75,20-7.75l8,12.58-9,15.83Z"/><path class="cls-2" d="M67.16.25s-1.22,6.18.89,7.54,12.27,0,12.27,0S76.49,8,72.16,13,78,22,78,22s-3.37-2.74-11.18,2.8L62.33,10.48a39.7,39.7,0,0,0-25.84,2c-13.33,6-7.67,25.78-7.67,25.78l20-7.16A39.1,39.1,0,0,0,34.49,45.33s-4.39,2.52-6.86,9.51,8.82,10.72,8.82,10.72l15.21-1.89s-5.17.89-6.67,4.44,2.17,4.42,2.17,4.42l27.93-23.1,16.1-20.72L97,0Z"/><path class="cls-3" d="M330.18,0S305,23,290.77,26s-13.5,0-13.5,0-9.75,4.17-14.75,1.33A117.73,117.73,0,0,1,235.77,46s12.5,1,13.75,4.75S230,67.5,169.27,87.25a9.68,9.68,0,0,1,7.25,6.9c1.5,5.85-31.25,21.85-39.75,21.6s4.09-12,4.09-12-3.67-5-.11-8.13L120,111.5s-11,21-42.75,28.25-34.5-4.5-34.5-4.5l-6.25.25S22.27,144,7.27,145,.52,135,31.52,127.5a14.79,14.79,0,0,1,3-13.25h0c-.63.21-18.46,6.31-17.48-3.51,1-10,14.75-16.45,19.5-16.6a3.9,3.9,0,0,1,1,.1l.07,0,.44.15.07,0c2.93,1.31,2.37,6.55,2.37,6.55l3,1.25,7.5-8.1S40,95,41.77,88.5s12.5-8.25,12.5-8.25l1-2.75s-10.5-.94-9.75-5,5.21-6.14,5.49-6.27c-.52.07-16.83,2.37-18.74-4.51C29,49.89,52.6,32.78,54.74,31.24,53,32.34,37.1,42,30.78,39.81a0,0,0,0,1-.05,0,3.39,3.39,0,0,1-1.91-1.49,2.21,2.21,0,0,1-.18-.34c-4-7.84,9.6-25.25,26.85-28a16.82,16.82,0,0,1,3-.22c13.84.17,8.85,20,8.85,20s11.83-6.5,7.7.17l5.75-4.5S67.52,21.25,77.52,9.75c0,0-18.5,1.5-4.75-9.75Z"/><path class="cls-4" d="M46.19,126.33S36,123.67,42.86,111.17s24.41-22,24.41-22S59.52,90.5,60,84.58s7.25-12,7.25-12-14.08-6-7.08-16S97,35.5,97,35.5s-12.66,3.83-13.16,1.17S97.36,24,97.36,24s-14.31-3.31-5.84-11.33C110.19-5,134.36,1.33,136.86,1.83s1.66,5.67,1.66,5.67,13-5.83,17.34-5,6.16,5,6.16,5L178.52,0H330.18s-11.29,9.5-26.47,20.21S277.27,26,277.27,26c-6.25,3.17-14.75,1.33-14.75,1.33s-6,5.24-13,10.47-18,11.7-18,11.7a88.53,88.53,0,0,1,11.84-1.83s6.16.66,6.16,3.08-3.66,7.19-27,16.9-55,19.68-55,19.68c-1.33,5.34-8.33,6.82-8.33,6.82s2.5-.15,11.67-1.48,7.66,1.48,7.66,1.48-3.33,9.18-18.66,16-24.36,5.44-24.36,5.44c-.35-4.22,12.69-13.28,12.69-13.28-.67-1.66,3-5,3-5L120,111.5c-3.5,5.83-13.69,20.92-37.28,28,0,0-35.38,9.8-40-4.28l-6.25.25S20.49,145.35,4,145C4,145,14.69,132.5,46.19,126.33Z"/></g></g></svg>