<svg xmlns="http://www.w3.org/2000/svg" xmlns:xlink="http://www.w3.org/1999/xlink" viewBox="0 0 670.05 162.47"><defs><style>.cls-1{isolation:isolate;}.cls-2,.cls-3,.cls-4,.cls-5,.cls-6,.cls-7,.cls-8{fill-rule:evenodd;}.cls-2{fill:url(#Áåçûìÿííûé_ãðàäèåíò_68);}.cls-3{fill:url(#Áåçûìÿííûé_ãðàäèåíò_195);}.cls-4,.cls-5,.cls-6,.cls-8{mix-blend-mode:multiply;opacity:0.45;}.cls-4{fill:url(#Áåçûìÿííûé_ãðàäèåíò_299);}.cls-5{fill:url(#Áåçûìÿííûé_ãðàäèåíò_299-2);}.cls-6{fill:url(#Áåçûìÿííûé_ãðàäèåíò_299-3);}.cls-7{fill:#4961ad;}.cls-8{fill:url(#Áåçûìÿííûé_ãðàäèåíò_299-4);}.cls-9{fill:url(#Áåçûìÿííûé_ãðàäèåíò_4);}.cls-10{fill:url(#Áåçûìÿííûé_ãðàäèåíò_4-2);}.cls-11{fill:url(#Áåçûìÿííûé_ãðàäèåíò_3);}.cls-12{fill:url(#Áåçûìÿííûé_ãðàäèåíò_2);}.cls-13{fill:url(#Áåçûìÿííûé_ãðàäèåíò_4-3);}.cls-14{fill:url(#Áåçûìÿííûé_ãðàäèåíò_4-4);}.cls-15{fill:url(#Áåçûìÿííûé_ãðàäèåíò_3-2);}.cls-16{fill:url(#Áåçûìÿííûé_ãðàäèåíò_2-2);}.cls-17{fill:url(#Áåçûìÿííûé_ãðàäèåíò_2-3);}</style><linearGradient id="Áåçûìÿííûé_ãðàäèåíò_68" x1="12.22" y1="26.81" x2="12.22" y2="12.09" gradientUnits="userSpaceOnUse"><stop offset="0" stop-color="#263980"/><stop offset="0.15" stop-color="#223375"/><stop offset="0.7" stop-color="#172254"/><stop offset="1" stop-color="#131b47"/></linearGradient><linearGradient id="Áåçûìÿííûé_ãðàäèåíò_195" x1="318.65" y1="100.32" x2="318.65" gradientUnits="userSpaceOnUse"><stop offset="0" stop-color="#0257a3"/><stop offset="0.42" stop-color="#0a3976"/><stop offset="0.8" stop-color="#112354"/><stop offset="1" stop-color="#131b47"/></linearGradient><linearGradient id="Áåçûìÿííûé_ãðàäèåíò_299" x1="428.86" y1="37.33" x2="428.86" gradientUnits="userSpaceOnUse"><stop offset="0" stop-color="#822a65"/><stop offset="1" stop-color="#4c215e"/></linearGradient><linearGradient id="Áåçûìÿííûé_ãðàäèåíò_299-2" x1="223.21" y1="47.85" x2="223.21" y2="31.55" xlink:href="#Áåçûìÿííûé_ãðàäèåíò_299"/><linearGradient id="Áåçûìÿííûé_ãðàäèåíò_299-3" x1="122.39" y1="52.29" x2="122.39" y2="26.29" xlink:href="#Áåçûìÿííûé_ãðàäèåíò_299"/><linearGradient id="Áåçûìÿííûé_ãðàäèåíò_299-4" x1="417.19" y1="68.36" x2="417.19" y2="47.45" xlink:href="#Áåçûìÿííûé_ãðàäèåíò_299"/><linearGradient id="Áåçûìÿííûé_ãðàäèåíò_4" x1="392.01" y1="110" x2="392.01" y2="81.59" gradientUnits="userSpaceOnUse"><stop offset="0.01" stop-color="#3d70aa"/><stop offset="1" stop-color="#64b4c2"/></linearGradient><linearGradient id="Áåçûìÿííûé_ãðàäèåíò_4-2" x1="402" y1="74.2" x2="402" y2="1.67" xlink:href="#Áåçûìÿííûé_ãðàäèåíò_4"/><linearGradient id="Áåçûìÿííûé_ãðàäèåíò_3" x1="434.17" y1="191.44" x2="554.27" y2="-54.8" gradientUnits="userSpaceOnUse"><stop offset="0.01" stop-color="#2973ad"/><stop offset="1" stop-color="#0861a1"/></linearGradient><linearGradient id="Áåçûìÿííûé_ãðàäèåíò_2" x1="461.75" y1="191.93" x2="552.16" y2="-43.58" gradientUnits="userSpaceOnUse"><stop offset="0.01" stop-color="#2466a4"/><stop offset="1" stop-color="#173d7d"/></linearGradient><linearGradient id="Áåçûìÿííûé_ãðàäèåíò_4-3" x1="168.63" y1="74.32" x2="168.63" y2="19.36" xlink:href="#Áåçûìÿííûé_ãðàäèåíò_4"/><linearGradient id="Áåçûìÿííûé_ãðàäèåíò_4-4" x1="247.9" y1="119.98" x2="247.9" y2="48.27" xlink:href="#Áåçûìÿííûé_ãðàäèåíò_4"/><linearGradient id="Áåçûìÿííûé_ãðàäèåíò_3-2" x1="152.14" y1="162.46" x2="152.14" y2="0.67" xlink:href="#Áåçûìÿííûé_ãðàäèåíò_3"/><linearGradient id="Áåçûìÿííûé_ãðàäèåíò_2-2" x1="167.23" y1="37.3" x2="167.23" y2="0.67" xlink:href="#Áåçûìÿííûé_ãðàäèåíò_2"/><linearGradient id="Áåçûìÿííûé_ãðàäèåíò_2-3" x1="290.58" y1="81.57" x2="13.38" y2="81.57" xlink:href="#Áåçûìÿííûé_ãðàäèåíò_2"/></defs><g class="cls-1"><g id="Layer_2" data-name="Layer 2"><g id="Trees"><path class="cls-2" d="M18.67,22.61l5.77,4.2C23.86,26.64,5.43,21,0,17.88V12.09A109.05,109.05,0,0,0,18.67,22.61Z"/><path class="cls-3" d="M615.74,23.13l4.73.53S580,42.33,560.53,48.11c0,0-1.58-1,0-4.47,0,0-27.35,13.15-54.69,25l-10.26,2.63A37.44,37.44,0,0,0,489.8,76c-1.83,2.1-24.45,7.1-28.92,5.26,0,0,12.62-6.84,23.93-9.73L493,69.67,486.39,67s-21.83,11-40,16.83c0,0,1.84.78,0,5.26-.58,1.42-6,3-13.19,4.42h-.08c-15.44,3.14-38.78,5.82-38.78,5.82s-13.41,2.11-22.62,0c0,0,7.1-10,18.93-8.42a47.25,47.25,0,0,1,7.89-8.14c3.94-2.9,16.54-5.78,21-4.21s6.85,6.57,6.85,6.57L436.7,81s-17.88-1.06-23.4-12.62c0,0-11.46,12.35-24.21,17.06h0c-.53.2-1.05.39-1.59.55,0,0-36,8.94-67.79,0,0,0-1.05-6.29,5.5-18.35a.08.08,0,0,0,0,0h0s-7.36-6.84-8.41-11,1.84-15.78,9.2-18.93,10.25.52,10.25.52l4.47-.79s-3.15-3.15-.79-8.15,6.84-6.05,12.36-5l1.31-2.11s-8.14-1-12.35-4.2,2.68-13.92,3-14.45c-.37.29-6.83,5.23-11.42,4.72-4.74-.52-1.58-5.26-1.58-5.26l-6.57.79h0a0,0,0,0,1,0,0h0l0,0,0,.06a128.32,128.32,0,0,1-12.71,10.84l-.06,0c-4.21,3.1-8.84,6-12.89,7.13h0c-.73.16-17.18,3.7-26.77.64h0a13.34,13.34,0,0,1-3-1.34l-.07,0-.05,0,0,0s-7.36.52-11.83,6.31c0,0,12.79-2.89,20.82.11a11.54,11.54,0,0,1,2.84,1.46c7.36,5.26,6,13.93,6,13.93s-16.56,1.85-29.71.27V41s-7.1-1-14.73-2.89L229,43.63c.49-.08,9.13-1.46,16.28,2.12A8.55,8.55,0,0,1,248,47.84h0c4.49,5.16,3.85,15.4,2.05,19.45-2.11,4.73-15.52,7.1-15.52,7.1s5.53.27,8.16,3.16a7.73,7.73,0,0,1,2.1,6S239,83.35,223,78.34a31.56,31.56,0,0,1,7.36-2.88L220.06,72s.53,3.16-8.15,3.16c-8.46,0-17.92-9-18.39-9.46h0S169.21,60,144,52.29h-.08c-12.16-3.71-24.53-7.86-34.53-12,0,0,2.1,7.76-4.47,9.93a175.66,175.66,0,0,1-39.44-6s-3.41-1.58-1.83-6.84L58.37,34.7S7.63,14.73,0,7.89V0H637.3s-30.24,11-60.78,26c1.09-.48,7.6-3.18,8.33.07.78,3.55-4,6.7-4,6.7h15.64s-.79-4.6,4.47-7.49S615.74,23.13,615.74,23.13Z"/><path class="cls-4" d="M553.43,5.69C535.55-.47,467.72,5.52,468,12.36s6.81,17.92,7.09,18.38c-.46-.62-15.47-20.56-63.09-25-48.37-4.58-58.89,9.3-53.11,12.45s17.63.13,18.13,0l-10.77,8.93c-22.08,1.05-25.5,10.25-25.5,10.25s-3.15-3.15-.79-8.15,6.84-6.05,12.36-5l1.31-2.11s-8.14-1-12.35-4.2,2.68-13.92,3-14.45c-.37.29-6.83,5.23-11.42,4.72-4.74-.52-1.58-5.26-1.58-5.26l-6.57.79s-15,15-25.77,18.14c0,0-21.3,4.74-30-.78,0,0-7.36.52-11.83,6.31,0,0,12.79-2.89,20.82.11-15.49-.57-35.28,2-35.28,2l10.51-3.15s13.94-9.2,12.36-16.56S253.18,0,253.18,0H615.05L549.22,20.23S571.3,11.83,553.43,5.69Z"/><path class="cls-5" d="M229,43.64a60.07,60.07,0,0,0-25,4.21s27.6-12.62,35.75-16.3l2.63,6.57Z"/><path class="cls-6" d="M109.37,40.23,86.23,26.29s18.93,7.63,39.44,8.94,32.87,0,32.87,0-18.93,4.39-22.35,6.93S144,52.29,144,52.29,116.25,44.37,109.37,40.23Z"/><path class="cls-7" d="M63.63,37.33a5.15,5.15,0,0,0,0,4c.87,2.15,42.64,4.86,45.57,4.79,0,0-.49,2.58-4.3,4.09,0,0-25.11-1-39.44-6C65.46,44.17,61.92,43.64,63.63,37.33Z"/><path class="cls-7" d="M220.06,72s.53,3.16-8.15,3.16c-8.46,0-17.92-9-18.39-9.46C194,66,209.2,74.09,220.06,72Z"/><path class="cls-7" d="M250,67.3c-2.11,4.73-15.52,7.1-15.52,7.1s5.53.27,8.16,3.16a7.73,7.73,0,0,1,2.1,6S239,83.35,223,78.34a31.56,31.56,0,0,1,7.36-2.88L220.06,72l-2.9-3s6.58,1.75,19.72,0,13.77-16.73,11.1-21.2C252.47,53,251.83,63.25,250,67.3Z"/><path class="cls-7" d="M286.84,42.85s-16.56,1.85-29.71.27V41s-7.1-1-14.73-2.89l19.9-.79L260,39.7S275.8,43.11,286.84,42.85Z"/><path class="cls-7" d="M269,21l-4.34-2.37s22.21,2.24,38.52-4,21.56-11,21.56-11a77,77,0,0,1-25.77,18.14A35.27,35.27,0,0,1,269,21Z"/><path class="cls-7" d="M394.29,82.43l-5.2,3h0c-.53.2-1.05.39-1.59.55,0,0-36,8.94-67.79,0,0,0-1.05-6.29,5.5-18.35-.18.67-2.31,8.85,0,14.41a141.84,141.84,0,0,0,40.49,4.73C386.12,86,393.45,82.82,394.29,82.43Z"/><path class="cls-7" d="M433.15,93.56c-15.44,3.14-38.78,5.82-38.78,5.82s-13.41,2.11-22.62,0c0,0,13.14-1.58,28.4-4.73L398.31,97Z"/><path class="cls-7" d="M246.08,87.94l-1.44.09a30.39,30.39,0,0,0,11.18,4.51,13.6,13.6,0,0,0-11.28-5Z"/><path class="cls-7" d="M235.94,86.19a4.94,4.94,0,0,0-4.56-.25,7.79,7.79,0,0,0,5.25,1.58,1.59,1.59,0,0,0-1.58-1.43Z"/><path class="cls-7" d="M363,102.24a12.2,12.2,0,0,1,5.19-2.54c1.3-.08,2,1.75,1.4,2.9a5,5,0,0,1-3.22,2.05,4.15,4.15,0,0,1-2.84.09c-.89-.4-1.4-1.68-.72-2.37Z"/><path class="cls-7" d="M304.5,22.93c-.12.23-.51.06-.53-.19a.88.88,0,0,1,.36-.64,12.42,12.42,0,0,1,9.12-3.18,2.4,2.4,0,0,1,1.89.8,2.41,2.41,0,0,1-.22,2.39A13.16,13.16,0,0,1,304,29a2.77,2.77,0,0,1-2.05-.57c-.94-.93-.33-2.57.6-3.5s2.17-1.67,2.62-2.92Z"/><path class="cls-7" d="M305.94,16.36a10.56,10.56,0,0,0-5.51,5.1,21.08,21.08,0,0,1,7.2-.75,2,2,0,0,0,1.12-.14,1.76,1.76,0,0,0,.67-.91,11.73,11.73,0,0,0,.86-4.61,6.8,6.8,0,0,0-5.83,1.52Z"/><path class="cls-7" d="M95,54.13c0,.22-.42-.07-.26-.24s.43-.09.64,0c1.53.68,3,1.4,4.51,2.18,1-.73.19-2.25-.63-3.15a6,6,0,0,0-1.88-1.57,2,2,0,0,0-2.29.31,1.26,1.26,0,0,0,.43,2Z"/><path class="cls-7" d="M352.41,92.14a4.25,4.25,0,0,1,2.2,1.29,4.71,4.71,0,0,1,.7,2.33c.18,1.53.28,3.31-.85,4.35a4.59,4.59,0,0,1-3,.91,29.91,29.91,0,0,1-16.29-4.12c-.35-.21-.74-.49-.76-.9a1.21,1.21,0,0,1,.46-.83C339.17,90.92,346.94,90.42,352.41,92.14Z"/><path class="cls-8" d="M413.3,68.36s-1.63-9-17-12.28c0,0,24.18-.88,41.75-8.63C438.06,47.45,416.21,57.91,413.3,68.36Z"/><path class="cls-9" d="M381,110a33.49,33.49,0,0,1,4-15.83s-6,1.5-7-4.83,20-7.75,20-7.75l8,12.58L397,110Z"/><path class="cls-10" d="M407,1.92s-1.22,6.18.89,7.54,12.28,0,12.28,0-3.84.19-8.17,5.21,5.83,9,5.83,9-3.37-2.74-11.18,2.8l-4.48-14.32a39.66,39.66,0,0,0-25.84,2C363,20.17,368.69,40,368.69,40l20-7.16A39.16,39.16,0,0,0,374.35,47s-4.39,2.52-6.86,9.51,8.82,10.72,8.82,10.72l15.21-1.89s-5.17.89-6.67,4.45S387,74.2,387,74.2L415,51.11l16.1-20.73,5.8-28.71Z"/><path class="cls-11" d="M670.05,1.67s-25.16,23-39.41,26-13.5,0-13.5,0-9.75,4.17-14.75,1.33a117.73,117.73,0,0,1-26.75,18.67s12.5,1,13.75,4.75-19.5,16.75-80.25,36.5a9.68,9.68,0,0,1,7.25,6.9c1.5,5.85-31.25,21.85-39.75,21.6s4.09-12,4.09-12-3.67-5.05-.11-8.13l-20.73,15.9s-11,21-42.75,28.25-34.5-4.5-34.5-4.5l-6.25.25s-14.25,8.5-29.25,9.5-6.75-10,24.25-17.5a14.79,14.79,0,0,1,3-13.25h0c-.63.21-18.46,6.31-17.48-3.51,1-10,14.75-16.45,19.5-16.6a3.9,3.9,0,0,1,1.05.1l.07,0,.44.15.07,0c2.93,1.31,2.37,6.55,2.37,6.55l3,1.25,7.5-8.1s-11,.85-9.25-5.65,12.5-8.25,12.5-8.25l1-2.75s-10.5-.94-9.75-5,5.21-6.14,5.49-6.27c-.52.07-16.83,2.37-18.74-4.51-3.29-11.86,20.33-29,22.47-30.51-1.78,1.1-17.64,10.71-24,8.57a0,0,0,0,1,0,0A3.39,3.39,0,0,1,368.69,40a2.21,2.21,0,0,1-.18-.34c-4-7.84,9.6-25.25,26.85-28a16.82,16.82,0,0,1,3-.22c13.84.17,8.85,20.05,8.85,20.05s11.83-6.5,7.7.17l5.75-4.5s-13.25-4.25-3.25-15.75c0,0-18.5,1.5-4.75-9.75Z"/><path class="cls-12" d="M386.05,128s-10.17-2.66-3.33-15.16,24.41-22,24.41-22-7.75,1.33-7.25-4.59,7.25-12,7.25-12-14.08-6-7.08-16,36.83-21,36.83-21S424.22,41,423.72,38.34s13.5-12.67,13.5-12.67-14.31-3.31-5.84-11.33C450.05-3.33,474.22,3,476.72,3.5s1.66,5.67,1.66,5.67,13-5.83,17.34-5,6.16,5,6.16,5l16.5-7.5H670.05s-11.3,9.5-26.48,20.21-26.44,5.79-26.44,5.79C610.88,30.84,602.38,29,602.38,29s-6,5.24-13,10.47-18,11.7-18,11.7a88.53,88.53,0,0,1,11.84-1.83s6.16.66,6.16,3.08-3.65,7.19-27,16.9-55,19.68-55,19.68c-1.33,5.34-8.33,6.82-8.33,6.82s2.5-.15,11.67-1.48,7.66,1.48,7.66,1.48-3.33,9.18-18.66,16-24.36,5.44-24.36,5.44C475,113.06,488.05,104,488.05,104c-.67-1.66,3-5,3-5l-31.17,14.17c-3.5,5.83-13.69,20.92-37.28,28,0,0-35.38,9.8-40-4.28l-6.25.25s-16,9.85-32.51,9.51C343.87,146.68,354.55,134.17,386.05,128Z"/><path class="cls-13" d="M162.1,20.52S168.54,34,167.23,37.3s-2.48,3.78-2.48,3.78A50,50,0,0,1,189.6,56.14c10.59,12.12,5,18.18,5,18.18L156.13,60.69,142.26,41.32l-1.08-21.16S161,18.13,162.1,20.52Z"/><path class="cls-14" d="M246.16,48.27a54.11,54.11,0,0,1,12.18,7.51,12.09,12.09,0,0,1,6.92,2.85c3.24,2.77-1,8.19-1,8.19l-4.62-4.46s1.31,4.92.95,7.66-4.3-.17-4.3-.17L234.79,70s12,5.09,13.11,14.09S240.05,93,240.05,93s12-3.83,20,0,7.43,13.74,7.43,13.74l-7.67-2.43s4,0,6.45,6,0,9.68,0,9.68l-26.18-8.13L228.33,77.11l15.55-21Z"/><path class="cls-15" d="M13.38,69.85s33,21.36,61.21,34.27,51.81,13.71,55.31,12a5.91,5.91,0,0,0,3.51-4.94l71.09,21.52s-5.58-1.28-10.2,1.91c0,0-6.85-2.15-12.59,0s4.14,7.81,4.14,7.81,24.07,8.93,46.55,12.75,24.23.48,24.23.48l15.3,3.19s10.36,3,18.65,3.66c0,0,2.71-2.86-7.49-6.21,0,0,2.23-2.87-3.83-6.06,0,0,4.47-5.58-7.17-12.27s-22.32-8.93-25.82-7.65,3.82,5.57,3.82,5.57l-4-.63s-1.92-2.08-9.09-4c0,0,9.57,1.75,13.23-2.39,0,0,14.19,6.85,22.64,4.62,0,0,13.07,5.42,15.78,3.83s-4.94-5.9-4.94-5.9,2.71-3.67-9.41-11.48-16.1-9.08-16.1-9.08,3.19.48,3.67-1.28-3.19-4.62-3.19-4.62,6.54,4.14,8.61,2.71-10.2-12.11-17.38-14.51-9.88-.15-9.88-.15,10.07-1.68,1.12-19.29c0,0,4,2.23,3.34-2.07,0,0,6.7,6.37,9.89,4.3s1.91-6.06,1.91-6.06,4.46-1.59,3.67-5.26c0,0,3,3.83,4.3,2.23s-4.94-9.4-5.42-7c0,0-3.83-6.22-4.62-4.3,0,0-7.49-8.29-10.52-8.13a2.42,2.42,0,0,0-2.55,2.87s-2.55-1.6-4.31,1.75,1,9.24,1,9.24-3.35-6.53-4.78-3.82c0,0-11.16-12.91-21.36-13.87s-15.78,11-15.78,11-5.9-5.9-9.09-3.19-.32,10.52-.32,10.52-16.41-8.61-34.35-16.74c0,0,5.34-.31,5.18-3.66S148.55,23,148.55,23s25.19,13.87,31.72,12.43,4.31-4.94,4.31-4.94,4.78.8,4.46-1.91c0,0,23.11,11.79,25.51,8.13s-9.09-18-9.09-18,10,6.38,14,2.55S220,8.16,220,8.16s3.18.64,3.18-2.39a10.56,10.56,0,0,0-1.27-5.1h-118S98.66.51,97.07,9.12L78.26.67H13.38Z"/><path class="cls-16" d="M175.72.67s14.18,6.26,24,14.92,5.74,9.47,5.74,9.47,11.16,9.25,9.09,11.64S200.52,34,190,29.05c0,0,.2,2.19-5.42,1.43,0,0,1.85,3.55-1.32,4.86s-12.17-1.13-21.14-5.53S148.55,23,148.55,23l-7.37-2.83S134.85,9.4,119.66.67Z"/><path class="cls-17" d="M51.16.67l18.17,9.8s-.48-3.1,3.11-4.9,17.93,6.1,32.6,17.74,18.17,24.23,18,26.78-4.78,3.66-4.78,3.66,8.29,1.76,14,6.22c0,0,1.28-6.86,11-7.81S175.17,66,183,74.79c0,0,0-5.1,1.76-7.49s5.1-.16,5.1-.16-3.67-6.06-1.91-8.61,22.31,2.08,35.54,16.26,16.42,23.44,15.31,25.67l7,8.76s2-3,10.84,1.12,13.39,11.16,9.72,12.11c0,0,12.31,4.28,14.67,9.41,0,0,6.05,1.75,7.65,5.42,0,0-1.78,1.81-15.78-3.83,0,0-3.68,1.31-10.9-.4a50,50,0,0,1-11.74-4.22s-1.43,3.83-13.23,2.39l-3-.9s2.33,1.86,2.93,3.35-3.7.54-3.7.54l11.17,4.6a2.13,2.13,0,0,1,1.26-2.63c1.85-.75,16.08,5.68,16.08,5.68s-1.26-2.75-.9-4.42,13.09,3.94,14.89,7.77-3.53,2.33-3.53,2.33,6.34,3,8.13,5,.12,3,.12,3,9.42,2.71,10.12,6.91c0,0-4.14.26-13.77-1.83,0,0,.66.72-7.59-.6s-5.92-2-5.92-2l-6.67-2.39s-3.79,3.83-29-.9-42.09-11.29-43.16-12,1.39-.38,1.39-.38-4.74-2.67-3.84-4.16,10.7-1.32,10.7-1.32-1.08-1.49.6-2,13.68-.18,13.68-.18-3.36-.9-2.49-2c0,0-55.31-14.11-71.09-21.52,0,0,1.41,2.66-5.27,5.39s-41.93-1.12-72.2-18.3S13.38,69.85,13.38,69.85V.67Z"/></g></g></g></svg>