<svg xmlns="http://www.w3.org/2000/svg" xmlns:xlink="http://www.w3.org/1999/xlink" viewBox="0 0 277.53 161.8"><defs><style>.cls-1{fill:url(#Áåçûìÿííûé_ãðàäèåíò_4);}.cls-2{fill:url(#Áåçûìÿííûé_ãðàäèåíò_4-2);}.cls-3{fill:url(#Áåçûìÿííûé_ãðàäèåíò_3);}.cls-4{fill:url(#Áåçûìÿííûé_ãðàäèåíò_2);}.cls-5{fill:url(#Áåçûìÿííûé_ãðàäèåíò_2-2);}</style><linearGradient id="Áåçûìÿííûé_ãðàäèåíò_4" x1="155.25" y1="73.64" x2="155.25" y2="18.68" gradientUnits="userSpaceOnUse"><stop offset="0.01" stop-color="#3d70aa"/><stop offset="1" stop-color="#64b4c2"/></linearGradient><linearGradient id="Áåçûìÿííûé_ãðàäèåíò_4-2" x1="234.52" y1="119.31" x2="234.52" y2="47.6" xlink:href="#Áåçûìÿííûé_ãðàäèåíò_4"/><linearGradient id="Áåçûìÿííûé_ãðàäèåíò_3" x1="138.76" y1="161.79" x2="138.76" gradientUnits="userSpaceOnUse"><stop offset="0.01" stop-color="#2973ad"/><stop offset="1" stop-color="#0861a1"/></linearGradient><linearGradient id="Áåçûìÿííûé_ãðàäèåíò_2" x1="153.85" y1="36.63" x2="153.85" gradientUnits="userSpaceOnUse"><stop offset="0.01" stop-color="#2466a4"/><stop offset="1" stop-color="#173d7d"/></linearGradient><linearGradient id="Áåçûìÿííûé_ãðàäèåíò_2-2" x1="277.2" y1="80.9" x2="0" y2="80.9" xlink:href="#Áåçûìÿííûé_ãðàäèåíò_2"/></defs><g id="Layer_2" data-name="Layer 2"><g id="Trees"><path class="cls-1" d="M148.72,19.85s6.44,13.49,5.13,16.78-2.48,3.78-2.48,3.78a50,50,0,0,1,24.85,15.06c10.59,12.12,5,18.17,5,18.17L142.74,60,128.88,40.65,127.8,19.49S147.64,17.46,148.72,19.85Z"/><path class="cls-2" d="M232.78,47.6A54.11,54.11,0,0,1,245,55.11,12.09,12.09,0,0,1,251.88,58c3.24,2.77-1,8.19-1,8.19l-4.62-4.46s1.31,4.92.95,7.66-4.3-.17-4.3-.17l-21.52.19s12,5.09,13.11,14.09-7.85,8.83-7.85,8.83,12-3.82,20,0S254.07,106,254.07,106l-7.67-2.43s4,0,6.45,6,0,9.68,0,9.68l-26.18-8.13L215,76.44l15.55-21Z"/><path class="cls-3" d="M0,69.18s33,21.36,61.21,34.27,51.81,13.71,55.31,12a5.91,5.91,0,0,0,3.51-4.94L191.12,132s-5.58-1.28-10.2,1.91c0,0-6.85-2.15-12.59,0s4.14,7.81,4.14,7.81,24.07,8.93,46.55,12.75,24.23.48,24.23.48l15.3,3.19s10.36,3,18.65,3.66c0,0,2.71-2.87-7.49-6.21,0,0,2.23-2.87-3.83-6.06,0,0,4.47-5.58-7.17-12.27s-22.32-8.93-25.82-7.66,3.82,5.58,3.82,5.58l-4-.63s-1.92-2.08-9.09-4c0,0,9.57,1.75,13.23-2.39,0,0,14.19,6.85,22.64,4.62,0,0,13.07,5.42,15.78,3.83s-4.94-5.9-4.94-5.9,2.71-3.67-9.41-11.48-16.1-9.08-16.1-9.08,3.19.48,3.67-1.28-3.19-4.62-3.19-4.62,6.54,4.14,8.61,2.71-10.2-12.12-17.38-14.51-9.88-.16-9.88-.16,10.07-1.67,1.12-19.28c0,0,4,2.23,3.34-2.08,0,0,6.7,6.38,9.89,4.31s1.91-6.06,1.91-6.06,4.46-1.59,3.66-5.26c0,0,3,3.83,4.31,2.23s-4.94-9.4-5.42-7c0,0-3.83-6.22-4.62-4.31,0,0-7.5-8.28-10.52-8.13a2.42,2.42,0,0,0-2.55,2.87s-2.55-1.59-4.31,1.76,1,9.24,1,9.24-3.35-6.53-4.78-3.82c0,0-11.16-12.91-21.36-13.87s-15.78,11-15.78,11-5.9-5.9-9.09-3.19-.32,10.52-.32,10.52S156.7,52.6,138.76,44.47c0,0,5.34-.32,5.18-3.66s-8.77-18.49-8.77-18.49,25.19,13.86,31.72,12.43,4.31-4.94,4.31-4.94,4.78.8,4.46-1.91c0,0,23.11,11.79,25.51,8.13s-9.09-18-9.09-18,10,6.38,14,2.55.48-13.07.48-13.07,3.18.64,3.18-2.39A10.56,10.56,0,0,0,208.5,0h-118s-5.26-.16-6.85,8.45L64.88,0H0Z"/><path class="cls-4" d="M162.34,0s14.18,6.26,24,14.92,5.74,9.47,5.74,9.47,11.16,9.24,9.09,11.64-14-2.71-24.55-7.66c0,0,.2,2.2-5.42,1.44,0,0,1.85,3.55-1.32,4.86s-12.17-1.13-21.14-5.53-13.57-6.82-13.57-6.82l-7.37-2.83S121.46,8.73,106.28,0Z"/><path class="cls-5" d="M37.78,0,56,9.8s-.48-3.11,3.11-4.9S77,11,91.66,22.64s18.17,24.22,18,26.77-4.78,3.67-4.78,3.67,8.29,1.75,14,6.22c0,0,1.28-6.86,11-7.81s31.88,13.87,39.69,22.63c0,0,0-5.1,1.76-7.49s5.1-.16,5.1-.16-3.67-6.06-1.91-8.61,22.31,2.08,35.54,16.26,16.42,23.43,15.3,25.67l7,8.76s2-3,10.84,1.12,13.39,11.16,9.72,12.11c0,0,12.31,4.27,14.67,9.41,0,0,6.05,1.75,7.65,5.42,0,0-1.78,1.81-15.78-3.83,0,0-3.68,1.3-10.91-.4a49.83,49.83,0,0,1-11.73-4.22s-1.43,3.83-13.23,2.39l-3-.9s2.33,1.86,2.93,3.35-3.7.54-3.7.54l11.17,4.6a2.13,2.13,0,0,1,1.26-2.63c1.85-.75,16.08,5.68,16.08,5.68s-1.26-2.75-.9-4.42,13.09,3.94,14.89,7.77-3.53,2.33-3.53,2.33,6.34,3,8.13,5,.12,3,.12,3,9.42,2.71,10.12,6.91c0,0-4.14.26-13.77-1.83,0,0,.66.72-7.59-.6s-5.92-2-5.92-2l-6.67-2.39s-3.79,3.82-29-.9-42.09-11.3-43.16-11.95,1.39-.38,1.39-.38-4.74-2.67-3.84-4.17,10.7-1.31,10.7-1.31-1.08-1.5.6-2,13.68-.18,13.68-.18-3.36-.9-2.49-2c0,0-55.31-14.11-71.09-21.52,0,0,1.41,2.66-5.27,5.39s-41.93-1.12-72.2-18.31S0,69.18,0,69.18V0Z"/></g></g></svg>