<svg xmlns="http://www.w3.org/2000/svg" xmlns:xlink="http://www.w3.org/1999/xlink" viewBox="0 0 656 104.96"><defs><style>.cls-1{isolation:isolate;}.cls-2,.cls-3,.cls-4,.cls-5,.cls-6,.cls-7,.cls-8{fill-rule:evenodd;}.cls-2{fill:url(#Áåçûìÿííûé_ãðàäèåíò_68);}.cls-3{fill:url(#Áåçûìÿííûé_ãðàäèåíò_195);}.cls-4,.cls-5,.cls-6,.cls-8{mix-blend-mode:multiply;opacity:0.45;}.cls-4{fill:url(#Áåçûìÿííûé_ãðàäèåíò_299);}.cls-5{fill:url(#Áåçûìÿííûé_ãðàäèåíò_299-2);}.cls-6{fill:url(#Áåçûìÿííûé_ãðàäèåíò_299-3);}.cls-7{fill:#4961ad;}.cls-8{fill:url(#Áåçûìÿííûé_ãðàäèåíò_299-4);}</style><linearGradient id="Áåçûìÿííûé_ãðàäèåíò_68" x1="12.58" y1="26.81" x2="12.58" y2="12.09" gradientUnits="userSpaceOnUse"><stop offset="0" stop-color="#263980"/><stop offset="0.15" stop-color="#223375"/><stop offset="0.7" stop-color="#172254"/><stop offset="1" stop-color="#131b47"/></linearGradient><linearGradient id="Áåçûìÿííûé_ãðàäèåíò_195" x1="328" y1="100.32" x2="328" gradientUnits="userSpaceOnUse"><stop offset="0" stop-color="#0257a3"/><stop offset="0.42" stop-color="#0a3976"/><stop offset="0.8" stop-color="#112354"/><stop offset="1" stop-color="#131b47"/></linearGradient><linearGradient id="Áåçûìÿííûé_ãðàäèåíò_299" x1="441.44" y1="37.33" x2="441.44" gradientUnits="userSpaceOnUse"><stop offset="0" stop-color="#822a65"/><stop offset="1" stop-color="#4c215e"/></linearGradient><linearGradient id="Áåçûìÿííûé_ãðàäèåíò_299-2" x1="229.76" y1="47.85" x2="229.76" y2="31.55" xlink:href="#Áåçûìÿííûé_ãðàäèåíò_299"/><linearGradient id="Áåçûìÿííûé_ãðàäèåíò_299-3" x1="125.98" y1="52.29" x2="125.98" y2="26.29" xlink:href="#Áåçûìÿííûé_ãðàäèåíò_299"/><linearGradient id="Áåçûìÿííûé_ãðàäèåíò_299-4" x1="429.43" y1="68.36" x2="429.43" y2="47.45" xlink:href="#Áåçûìÿííûé_ãðàäèåíò_299"/></defs><g class="cls-1"><g id="Layer_2" data-name="Layer 2"><g id="Trees"><path class="cls-2" d="M19.22,22.61l5.93,4.2C24.56,26.64,5.59,21,0,17.88V12.09A113,113,0,0,0,19.22,22.61Z"/><path class="cls-3" d="M633.81,23.13l4.87.53S597,42.33,577,48.11c0,0-1.62-1,0-4.47,0,0-28.15,13.15-56.3,25l-10.55,2.63A38.16,38.16,0,0,0,504.18,76c-1.89,2.1-25.17,7.1-29.77,5.26,0,0,13-6.84,24.63-9.73l8.39-1.84L500.66,67s-22.46,11-41.14,16.83c0,0,1.9.78,0,5.26-.6,1.42-6.2,3-13.58,4.42h-.08c-15.89,3.14-39.92,5.82-39.92,5.82s-13.8,2.11-23.28,0c0,0,7.31-10,19.49-8.42a47.64,47.64,0,0,1,8.12-8.14c4.06-2.9,17-5.78,21.63-4.21S439,85.18,439,85.18L449.51,81s-18.4-1.06-24.08-12.62c0,0-11.8,12.35-24.92,17.06h0c-.54.2-1.09.39-1.64.55,0,0-37,8.94-69.78,0,0,0-1.08-6.29,5.67-18.35v0h0s-7.57-6.84-8.65-11S328,40.75,335.57,37.6s10.56.52,10.56.52l4.6-.79s-3.24-3.15-.81-8.15,7-6.05,12.72-5L364,22.08s-8.39-1-12.71-4.2S354,4,354.38,3.43c-.39.29-7,5.23-11.77,4.72S341,2.89,341,2.89l-6.76.79h0a0,0,0,0,1,0,0h0a0,0,0,0,0,0,0l0,0-.05.06A130.21,130.21,0,0,1,321,14.65l-.06,0c-4.34,3.1-9.1,6-13.27,7.13h0c-.75.16-17.68,3.7-27.56.64h0a13.68,13.68,0,0,1-3.1-1.34l-.07,0-.06,0,0,0s-7.57.52-12.18,6.31c0,0,13.17-2.89,21.44.11A12.09,12.09,0,0,1,289,28.92c7.57,5.26,6.23,13.93,6.23,13.93s-17.05,1.85-30.59.27V41s-7.3-1-15.15-2.89l-13.78,5.51c.5-.08,9.4-1.46,16.76,2.12a8.88,8.88,0,0,1,2.75,2.09h0c4.62,5.16,4,15.4,2.11,19.45-2.17,4.73-16,7.1-16,7.1s5.68.27,8.39,3.16a7.56,7.56,0,0,1,2.16,6s-5.95-.26-22.46-5.27a33,33,0,0,1,7.58-2.88L226.51,72s.55,3.16-8.38,3.16c-8.71,0-18.45-9-18.93-9.46h0s-25-5.75-51-13.44h-.08c-12.51-3.71-25.25-7.86-35.54-12,0,0,2.16,7.76-4.6,9.93a185.73,185.73,0,0,1-40.59-6s-3.52-1.58-1.9-6.84L60.08,34.7S7.85,14.73,0,7.89V0H656s-31.13,11-62.56,26c1.12-.48,7.82-3.18,8.57.07.81,3.55-4.06,6.7-4.06,6.7h16.1s-.81-4.6,4.6-7.49S633.81,23.13,633.81,23.13Z"/><path class="cls-4" d="M569.67,5.69c-18.4-6.16-88.22-.17-88,6.67s7,17.92,7.3,18.38c-.47-.62-15.92-20.56-64.94-25-49.79-4.58-60.62,9.3-54.66,12.45s18.14.13,18.65,0L377,27.08c-22.73,1.05-26.25,10.25-26.25,10.25s-3.24-3.15-.81-8.15,7-6.05,12.72-5L364,22.08s-8.39-1-12.71-4.2S354,4,354.38,3.43c-.39.29-7,5.23-11.77,4.72S341,2.89,341,2.89l-6.76.79s-15.43,15-26.53,18.14c0,0-21.92,4.74-30.85-.78,0,0-7.57.52-12.18,6.31,0,0,13.17-2.89,21.44.11-15.95-.57-36.32,2-36.32,2l10.82-3.15S275,17.09,273.34,9.73,260.61,0,260.61,0H633.1L565.34,20.23S588.07,11.83,569.67,5.69Z"/><path class="cls-5" d="M235.72,43.64A63.5,63.5,0,0,0,210,47.85s28.41-12.62,36.8-16.3l2.71,6.57Z"/><path class="cls-6" d="M112.58,40.23,88.77,26.29s19.48,7.63,40.59,8.94,33.83,0,33.83,0-19.49,4.39-23,6.93,8,10.13,8,10.13S119.66,44.37,112.58,40.23Z"/><path class="cls-7" d="M65.49,37.33a5,5,0,0,0,0,4c.91,2.15,43.9,4.86,46.91,4.79,0,0-.5,2.58-4.42,4.09,0,0-25.84-1-40.59-6C67.39,44.17,63.74,43.64,65.49,37.33Z"/><path class="cls-7" d="M226.51,72s.55,3.16-8.38,3.16c-8.71,0-18.45-9-18.93-9.46C199.73,66,215.34,74.09,226.51,72Z"/><path class="cls-7" d="M257.37,67.3c-2.17,4.73-16,7.1-16,7.1s5.68.27,8.39,3.16a7.56,7.56,0,0,1,2.16,6s-5.95-.26-22.46-5.27a33,33,0,0,1,7.58-2.88L226.51,72l-3-3s6.77,1.75,20.29,0S258,52.32,255.26,47.85C259.88,53,259.23,63.25,257.37,67.3Z"/><path class="cls-7" d="M295.26,42.85s-17.05,1.85-30.59.27V41s-7.3-1-15.15-2.89L270,37.33l-2.35,2.37S283.89,43.11,295.26,42.85Z"/><path class="cls-7" d="M276.85,21l-4.46-2.37s22.86,2.24,39.64-4,22.2-11,22.2-11A79.19,79.19,0,0,1,307.7,21.82,37.25,37.25,0,0,1,276.85,21Z"/><path class="cls-7" d="M405.86,82.43l-5.35,3h0c-.54.2-1.09.39-1.64.55,0,0-37,8.94-69.78,0,0,0-1.08-6.29,5.67-18.35-.19.67-2.38,8.85,0,14.41a150,150,0,0,0,41.68,4.73C397.46,86,405,82.82,405.86,82.43Z"/><path class="cls-7" d="M445.86,93.56c-15.89,3.14-39.92,5.82-39.92,5.82s-13.8,2.11-23.28,0c0,0,13.53-1.58,29.23-4.73L410,97Z"/><path class="cls-7" d="M253.31,87.94l-1.5.09a31.92,31.92,0,0,0,11.52,4.51,14.18,14.18,0,0,0-11.61-5Z"/><path class="cls-7" d="M242.86,86.19a5.21,5.21,0,0,0-4.69-.25,8.18,8.18,0,0,0,5.4,1.58A1.61,1.61,0,0,0,242,86.09Z"/><path class="cls-7" d="M373.61,102.24A12.77,12.77,0,0,1,379,99.7c1.34-.08,2.08,1.75,1.44,2.9a5.21,5.21,0,0,1-3.31,2.05,4.38,4.38,0,0,1-2.92.09c-.91-.4-1.44-1.68-.74-2.37Z"/><path class="cls-7" d="M313.43,22.93c-.11.23-.52.06-.54-.19a.86.86,0,0,1,.37-.64,13,13,0,0,1,9.39-3.18,2.49,2.49,0,0,1,1.94.8,2.32,2.32,0,0,1-.23,2.39A13.57,13.57,0,0,1,312.89,29a2.9,2.9,0,0,1-2.11-.57c-1-.93-.34-2.57.62-3.5s2.23-1.67,2.69-2.92Z"/><path class="cls-7" d="M314.92,16.36a10.79,10.79,0,0,0-5.68,5.1,22.3,22.3,0,0,1,7.41-.75,2.15,2.15,0,0,0,1.16-.14,1.75,1.75,0,0,0,.69-.91,11.41,11.41,0,0,0,.89-4.61,7.14,7.14,0,0,0-6,1.52Z"/><path class="cls-7" d="M97.8,54.13c0,.22-.43-.07-.27-.24s.44-.09.66,0c1.57.68,3.12,1.4,4.64,2.18,1-.73.19-2.25-.65-3.15a6.21,6.21,0,0,0-1.93-1.57,2.15,2.15,0,0,0-2.36.31,1.24,1.24,0,0,0,.45,2Z"/><path class="cls-7" d="M362.75,92.14A4.41,4.41,0,0,1,365,93.43a4.73,4.73,0,0,1,.72,2.33c.19,1.53.29,3.31-.87,4.35a4.88,4.88,0,0,1-3.1.91A31.54,31.54,0,0,1,345,96.9c-.36-.21-.76-.49-.77-.9a1.21,1.21,0,0,1,.46-.83C349.13,90.92,357.12,90.42,362.75,92.14Z"/><path class="cls-8" d="M425.43,68.36s-1.68-9-17.49-12.28c0,0,24.89-.88,43-8.63C450.91,47.45,428.42,57.91,425.43,68.36Z"/></g></g></g></svg>