<svg xmlns="http://www.w3.org/2000/svg" viewBox="0 0 780.5 257.6"><defs><style>.cls-1,.cls-2{fill:#9edae6;}.cls-1,.cls-10,.cls-4,.cls-5,.cls-9{fill-rule:evenodd;}.cls-3,.cls-4{fill:#6091cc;}.cls-5,.cls-6{fill:#9dbce3;}.cls-7,.cls-9{fill:#53c9f4;}.cls-10,.cls-8{fill:#fff;}</style></defs><g id="Layer_2" data-name="Layer 2"><g id="Trees"><path class="cls-1" d="M601.33,4.82a.43.43,0,1,1-.85,0,.43.43,0,1,1,.85,0Z"/><ellipse class="cls-2" cx="535.54" cy="22.13" rx="0.43" ry="0.45"/><path class="cls-1" d="M643.19,50.78a.44.44,0,0,1-.43.45.45.45,0,0,1,0-.9A.44.44,0,0,1,643.19,50.78Z"/><path class="cls-1" d="M500.66,45.88a.43.43,0,1,1-.85,0,.43.43,0,1,1,.85,0Z"/><path class="cls-1" d="M660.53,37.24a.43.43,0,1,1-.42-.45A.44.44,0,0,1,660.53,37.24Z"/><ellipse class="cls-3" cx="516.48" cy="63.69" rx="0.43" ry="0.45"/><ellipse class="cls-3" cx="473.4" cy="27.34" rx="0.43" ry="0.45"/><path class="cls-4" d="M453.68,17a.43.43,0,1,1-.43-.45A.44.44,0,0,1,453.68,17Z"/><path class="cls-5" d="M485.73,27.73a.43.43,0,1,1-.42-.45A.44.44,0,0,1,485.73,27.73Z"/><path class="cls-5" d="M312.15,58a.43.43,0,1,1-.85,0,.43.43,0,1,1,.85,0Z"/><path class="cls-5" d="M362.53,42.52a.43.43,0,1,1-.43-.45A.44.44,0,0,1,362.53,42.52Z"/><ellipse class="cls-6" cx="557.43" cy="0.45" rx="0.43" ry="0.45"/><path class="cls-5" d="M480.34,26.89a.43.43,0,1,1-.43-.45A.44.44,0,0,1,480.34,26.89Z"/><path class="cls-5" d="M393.15,38.74a.43.43,0,1,1-.86,0,.43.43,0,1,1,.86,0Z"/><ellipse class="cls-7" cx="545.46" cy="68.08" rx="0.43" ry="0.45"/><path class="cls-4" d="M504.81,49.09a.43.43,0,1,1-.43-.45A.44.44,0,0,1,504.81,49.09Z"/><path class="cls-4" d="M552.55,44.56a.43.43,0,1,1-.42-.46A.44.44,0,0,1,552.55,44.56Z"/><ellipse class="cls-3" cx="295.47" cy="86.99" rx="0.43" ry="0.45"/><path class="cls-4" d="M565.64,45a.43.43,0,1,1-.85,0,.43.43,0,1,1,.85,0Z"/><path class="cls-4" d="M318.4,110.68a.43.43,0,1,1-.42-.45A.44.44,0,0,1,318.4,110.68Z"/><ellipse class="cls-3" cx="595.72" cy="73.7" rx="0.43" ry="0.45"/><ellipse class="cls-3" cx="594.7" cy="39.2" rx="0.43" ry="0.45"/><ellipse class="cls-3" cx="323.56" cy="54.82" rx="0.43" ry="0.45"/><path class="cls-4" d="M560.17,14.38a.43.43,0,1,1-.85,0,.43.43,0,1,1,.85,0Z"/><path class="cls-4" d="M741.73,11a.43.43,0,1,1-.43-.45A.44.44,0,0,1,741.73,11Z"/><path class="cls-4" d="M271.16,107.82a.43.43,0,1,1-.42-.45A.44.44,0,0,1,271.16,107.82Z"/><ellipse class="cls-3" cx="280.41" cy="43.43" rx="0.43" ry="0.45"/><ellipse class="cls-3" cx="558.33" cy="55.16" rx="0.43" ry="0.45"/><ellipse class="cls-3" cx="485.73" cy="11.22" rx="0.43" ry="0.45"/><ellipse class="cls-3" cx="676.1" cy="23.69" rx="0.43" ry="0.45"/><ellipse class="cls-2" cx="657.14" cy="13.47" rx="0.43" ry="0.45"/><path class="cls-4" d="M678.47,17.24a.44.44,0,0,1-.43.45.44.44,0,0,1-.43-.45.45.45,0,0,1,.43-.46A.45.45,0,0,1,678.47,17.24Z"/><path class="cls-4" d="M720.12,39.07a.43.43,0,1,1-.43-.45A.44.44,0,0,1,720.12,39.07Z"/><ellipse class="cls-7" cx="304.94" cy="94.48" rx="0.43" ry="0.45"/><ellipse class="cls-7" cx="588.93" cy="36.25" rx="0.43" ry="0.45"/><ellipse class="cls-7" cx="340.46" cy="42.97" rx="0.43" ry="0.45"/><ellipse class="cls-7" cx="268.54" cy="77.16" rx="0.43" ry="0.45"/><ellipse class="cls-8" cx="608.82" cy="6.03" rx="0.43" ry="0.45"/><ellipse class="cls-7" cx="449.04" cy="59.86" rx="0.43" ry="0.45"/><path class="cls-9" d="M621,26.25a.43.43,0,1,1-.85,0,.43.43,0,1,1,.85,0Z"/><path class="cls-9" d="M638.38,169.78a.43.43,0,1,1-.85,0,.43.43,0,1,1,.85,0Z"/><path class="cls-9" d="M585.86,7.51a.43.43,0,1,1-.85,0,.43.43,0,1,1,.85,0Z"/><ellipse class="cls-7" cx="526.61" cy="11.46" rx="0.43" ry="0.45"/><path class="cls-9" d="M529.8,36.56a.43.43,0,1,1-.42-.46A.44.44,0,0,1,529.8,36.56Z"/><ellipse class="cls-7" cx="551.89" cy="4.36" rx="0.43" ry="0.45"/><ellipse class="cls-7" cx="537.43" cy="30.34" rx="0.43" ry="0.45"/><ellipse class="cls-7" cx="494.76" cy="33.68" rx="0.43" ry="0.45"/><ellipse class="cls-7" cx="597.82" cy="13.93" rx="0.43" ry="0.45"/><ellipse class="cls-2" cx="286.15" cy="38.08" rx="0.43" ry="0.45"/><ellipse class="cls-3" cx="259.31" cy="19.54" rx="0.43" ry="0.45"/><ellipse class="cls-3" cx="148.44" cy="104.76" rx="0.43" ry="0.45"/><ellipse class="cls-6" cx="123.41" cy="84.07" rx="0.43" ry="0.45"/><path class="cls-5" d="M98.06,50.21a.43.43,0,1,1-.85,0,.43.43,0,1,1,.85,0Z"/><ellipse class="cls-6" cx="148.01" cy="34.72" rx="0.43" ry="0.45"/><ellipse class="cls-6" cx="195.53" cy="56.79" rx="0.43" ry="0.45"/><ellipse class="cls-6" cx="265.82" cy="19.09" rx="0.43" ry="0.45"/><path class="cls-5" d="M179.06,30.94a.43.43,0,1,1-.86,0,.43.43,0,1,1,.86,0Z"/><ellipse class="cls-3" cx="81.38" cy="79.19" rx="0.43" ry="0.45"/><path class="cls-4" d="M104.31,102.88a.43.43,0,1,1-.42-.45A.44.44,0,0,1,104.31,102.88Z"/><path class="cls-4" d="M109.89,47a.43.43,0,1,1-.42-.45A.44.44,0,0,1,109.89,47Z"/><path class="cls-4" d="M198.27,70.73a.43.43,0,1,1-.85,0,.43.43,0,1,1,.85,0Z"/><ellipse class="cls-3" cx="56.65" cy="100.02" rx="0.43" ry="0.45"/><ellipse class="cls-3" cx="66.32" cy="35.63" rx="0.43" ry="0.45"/><ellipse class="cls-3" cx="123.83" cy="67.56" rx="0.43" ry="0.45"/><path class="cls-9" d="M91.27,86.68a.43.43,0,1,1-.85,0,.43.43,0,1,1,.85,0Z"/><path class="cls-9" d="M126.79,35.17a.43.43,0,1,1-.85,0,.43.43,0,1,1,.85,0Z"/><path class="cls-10" d="M247.34,62.37a.43.43,0,1,1-.42-.45A.44.44,0,0,1,247.34,62.37Z"/><ellipse class="cls-8" cx="236.78" cy="129.88" rx="0.43" ry="0.45"/><ellipse class="cls-8" cx="279.37" cy="129.43" rx="0.43" ry="0.45"/><path class="cls-10" d="M215.76,98.86a.43.43,0,1,1-.42-.45A.44.44,0,0,1,215.76,98.86Z"/><path class="cls-9" d="M220.74,51.11a.43.43,0,1,1-.85,0,.43.43,0,1,1,.85,0Z"/><path class="cls-9" d="M165.14,67.81a.44.44,0,0,1-.43.45.44.44,0,0,1-.43-.45.45.45,0,0,1,.43-.46A.45.45,0,0,1,165.14,67.81Z"/><path class="cls-5" d="M48.14,37.53a.44.44,0,0,1-.43.45.44.44,0,0,1-.43-.45.45.45,0,0,1,.43-.46A.45.45,0,0,1,48.14,37.53Z"/><ellipse class="cls-6" cx="145.61" cy="44.12" rx="0.43" ry="0.45"/><path class="cls-4" d="M31.88,66.51a.43.43,0,1,1-.43-.45A.44.44,0,0,1,31.88,66.51Z"/><path class="cls-4" d="M54.39,90.2a.43.43,0,1,1-.43-.45A.44.44,0,0,1,54.39,90.2Z"/><ellipse class="cls-3" cx="40.5" cy="118.29" rx="0.43" ry="0.45"/><path class="cls-4" d="M60,34.34a.43.43,0,1,1-.85,0,.43.43,0,1,1,.85,0Z"/><path class="cls-4" d="M148.35,58.05a.44.44,0,0,1-.43.45.45.45,0,0,1,0-.9A.44.44,0,0,1,148.35,58.05Z"/><ellipse class="cls-3" cx="6.72" cy="87.34" rx="0.43" ry="0.45"/><ellipse class="cls-3" cx="16.39" cy="22.95" rx="0.43" ry="0.45"/><path class="cls-9" d="M41.35,74a.43.43,0,1,1-.85,0,.43.43,0,1,1,.85,0Z"/><ellipse class="cls-7" cx="114.79" cy="55.13" rx="0.43" ry="0.45"/><ellipse class="cls-7" cx="189.99" cy="60.71" rx="0.43" ry="0.45"/><path class="cls-9" d="M176,86.68a.43.43,0,1,1-.85,0,.43.43,0,1,1,.85,0Z"/><ellipse class="cls-7" cx="132.87" cy="90.02" rx="0.43" ry="0.45"/><ellipse class="cls-7" cx="239.59" cy="57.25" rx="0.43" ry="0.45"/><path class="cls-9" d="M739.34,5.29a.43.43,0,1,1-.43-.45A.44.44,0,0,1,739.34,5.29Z"/><ellipse class="cls-3" cx="707.75" cy="43.66" rx="0.43" ry="0.45"/><ellipse class="cls-3" cx="672.59" cy="23.67" rx="0.43" ry="0.45"/><ellipse class="cls-3" cx="241.78" cy="41.47" rx="0.43" ry="0.45"/><path class="cls-4" d="M585.89,25a.43.43,0,1,1-.43-.46A.44.44,0,0,1,585.89,25Z"/><ellipse class="cls-3" cx="629.05" cy="40.32" rx="0.43" ry="0.45"/><ellipse class="cls-7" cx="705.36" cy="37.94" rx="0.43" ry="0.45"/><ellipse class="cls-3" cx="637.53" cy="22.83" rx="0.43" ry="0.45"/><ellipse class="cls-3" cx="667.01" cy="17" rx="0.43" ry="0.45"/><path class="cls-1" d="M582.07,55.41a.43.43,0,1,1-.85,0,.43.43,0,1,1,.85,0Z"/><path class="cls-4" d="M603,59.18a.43.43,0,1,1-.85,0,.43.43,0,1,1,.85,0Z"/><path class="cls-9" d="M750.36,35.45a.43.43,0,1,1-.43-.45A.44.44,0,0,1,750.36,35.45Z"/><ellipse class="cls-7" cx="601.69" cy="14.35" rx="0.43" ry="0.45"/><path class="cls-4" d="M780.5,21.46a.43.43,0,1,1-.85,0,.43.43,0,1,1,.85,0Z"/><path class="cls-4" d="M745.33,1.47a.43.43,0,1,1-.85,0,.43.43,0,1,1,.85,0Z"/><ellipse class="cls-3" cx="758.46" cy="49.52" rx="0.43" ry="0.45"/><ellipse class="cls-7" cx="777.68" cy="15.74" rx="0.43" ry="0.45"/><path class="cls-1" d="M184.88,151.64a.44.44,0,0,1-.43.45.45.45,0,0,1,0-.9A.44.44,0,0,1,184.88,151.64Z"/><path class="cls-1" d="M119.52,169a.45.45,0,0,1-.43.46.45.45,0,0,1-.43-.46.44.44,0,0,1,.43-.45A.44.44,0,0,1,119.52,169Z"/><ellipse class="cls-2" cx="243.65" cy="184.06" rx="0.43" ry="0.45"/><path class="cls-1" d="M565.21,257.15a.43.43,0,1,1-.85,0,.43.43,0,1,1,.85,0Z"/><ellipse class="cls-6" cx="140.98" cy="147.28" rx="0.43" ry="0.45"/><ellipse class="cls-7" cx="129.01" cy="214.9" rx="0.43" ry="0.45"/><ellipse class="cls-3" cx="135.67" cy="191.38" rx="0.43" ry="0.45"/><ellipse class="cls-3" cx="148.76" cy="191.86" rx="0.43" ry="0.45"/><ellipse class="cls-3" cx="179.26" cy="220.52" rx="0.43" ry="0.45"/><ellipse class="cls-3" cx="178.24" cy="186.02" rx="0.43" ry="0.45"/><ellipse class="cls-3" cx="143.29" cy="161.21" rx="0.43" ry="0.45"/><path class="cls-4" d="M325.28,157.84a.43.43,0,1,1-.85,0,.43.43,0,1,1,.85,0Z"/><ellipse class="cls-3" cx="141.88" cy="201.99" rx="0.43" ry="0.45"/><path class="cls-4" d="M260.07,170.52a.43.43,0,1,1-.85,0,.43.43,0,1,1,.85,0Z"/><ellipse class="cls-3" cx="60.16" cy="238.05" rx="0.43" ry="0.45"/><path class="cls-1" d="M241.11,160.3a.43.43,0,1,1-.85,0,.43.43,0,1,1,.85,0Z"/><path class="cls-4" d="M262,164.06a.43.43,0,1,1-.42-.45A.44.44,0,0,1,262,164.06Z"/><path class="cls-4" d="M303.66,185.9a.43.43,0,1,1-.85,0,.43.43,0,1,1,.85,0Z"/><ellipse class="cls-7" cx="172.48" cy="183.07" rx="0.43" ry="0.45"/><ellipse class="cls-8" cx="192.36" cy="152.85" rx="0.43" ry="0.45"/><path class="cls-10" d="M379.59,238.5a.45.45,0,0,1-.43.46.45.45,0,0,1-.43-.46.44.44,0,0,1,.43-.45A.44.44,0,0,1,379.59,238.5Z"/><path class="cls-10" d="M271.59,240.93a.43.43,0,1,1-.85,0,.43.43,0,1,1,.85,0Z"/><path class="cls-10" d="M106.81,240.48a.43.43,0,1,1-.43-.45A.44.44,0,0,1,106.81,240.48Z"/><ellipse class="cls-7" cx="204.07" cy="173.08" rx="0.43" ry="0.45"/><ellipse class="cls-7" cx="168.98" cy="154.34" rx="0.43" ry="0.45"/><ellipse class="cls-7" cx="135.44" cy="151.19" rx="0.43" ry="0.45"/><ellipse class="cls-7" cx="120.97" cy="177.17" rx="0.43" ry="0.45"/><ellipse class="cls-7" cx="181.36" cy="160.76" rx="0.43" ry="0.45"/><ellipse class="cls-7" cx="322.46" cy="152.12" rx="0.43" ry="0.45"/><ellipse class="cls-3" cx="291.3" cy="190.49" rx="0.43" ry="0.45"/><path class="cls-4" d="M256.56,170.5a.43.43,0,1,1-.42-.45A.44.44,0,0,1,256.56,170.5Z"/><ellipse class="cls-3" cx="79.66" cy="237.6" rx="0.43" ry="0.45"/><ellipse class="cls-3" cx="169.01" cy="171.77" rx="0.43" ry="0.45"/><ellipse class="cls-3" cx="212.6" cy="187.15" rx="0.43" ry="0.45"/><path class="cls-9" d="M289.34,184.77a.44.44,0,0,1-.43.45.45.45,0,0,1,0-.9A.44.44,0,0,1,289.34,184.77Z"/><ellipse class="cls-3" cx="221.08" cy="169.66" rx="0.43" ry="0.45"/><ellipse class="cls-3" cx="250.56" cy="163.82" rx="0.43" ry="0.45"/><path class="cls-1" d="M165.62,202.24a.43.43,0,1,1-.42-.45A.44.44,0,0,1,165.62,202.24Z"/><ellipse class="cls-3" cx="186.09" cy="206" rx="0.43" ry="0.45"/><path class="cls-9" d="M333.9,182.28a.43.43,0,1,1-.85,0,.43.43,0,1,1,.85,0Z"/><path class="cls-9" d="M185.67,161.18a.43.43,0,1,1-.43-.45A.44.44,0,0,1,185.67,161.18Z"/><path class="cls-1" d="M208.27,116.05a.43.43,0,1,1-.42-.45A.44.44,0,0,1,208.27,116.05Z"/><path class="cls-10" d="M216.19,117.26a.43.43,0,1,1-.43-.45A.44.44,0,0,1,216.19,117.26Z"/><path class="cls-10" d="M.85,55.58A.44.44,0,0,1,.43,56a.45.45,0,0,1,0-.9A.44.44,0,0,1,.85,55.58Z"/><path class="cls-10" d="M70.18,228.46a.43.43,0,1,1-.85,0,.43.43,0,1,1,.85,0Z"/><ellipse class="cls-7" cx="192.38" cy="118.75" rx="0.43" ry="0.45"/><path class="cls-9" d="M231,84.07a.43.43,0,1,1-.85,0,.43.43,0,1,1,.85,0Z"/><path class="cls-9" d="M205.19,125.16a.43.43,0,1,1-.85,0,.43.43,0,1,1,.85,0Z"/><ellipse class="cls-7" cx="208.64" cy="125.59" rx="0.43" ry="0.45"/><ellipse class="cls-7" cx="34.62" cy="118.75" rx="0.43" ry="0.45"/><ellipse class="cls-7" cx="319.48" cy="116.05" rx="0.43" ry="0.45"/><path class="cls-4" d="M364.05,168.29a.44.44,0,0,1-.43.45.44.44,0,0,1-.43-.45.45.45,0,0,1,.43-.46A.45.45,0,0,1,364.05,168.29Z"/><path class="cls-4" d="M328.88,148.3a.43.43,0,1,1-.85,0,.43.43,0,1,1,.85,0Z"/><path class="cls-4" d="M342.43,196.35a.43.43,0,1,1-.85,0,.43.43,0,1,1,.85,0Z"/><path class="cls-9" d="M361.65,162.57a.43.43,0,1,1-.85,0,.43.43,0,1,1,.85,0Z"/></g></g></svg>